<svg width="320" height="200" viewBox="0 0 320 200" fill="none" xmlns="http://www.w3.org/2000/svg">
  <rect width="320" height="200" fill="#F5F5F5"/>
  <path d="M160 80C151.716 80 145 86.7157 145 95C145 103.284 151.716 110 160 110C168.284 110 175 103.284 175 95C175 86.7157 168.284 80 160 80Z" fill="#E0E0E0"/>
  <path d="M185 130H135C132.791 130 131 128.209 131 126V64C131 61.7909 132.791 60 135 60H185C187.209 60 189 61.7909 189 64V126C189 128.209 187.209 130 185 130Z" stroke="#E0E0E0" stroke-width="4"/>
  <path d="M131 110L149.787 95.2132C151.367 93.9744 153.633 93.9744 155.213 95.2132L189 122" stroke="#E0E0E0" stroke-width="4" stroke-linecap="round"/>
  <path d="M169 100L177.787 93.2132C179.367 91.9744 181.633 91.9744 183.213 93.2132L189 98" stroke="#E0E0E0" stroke-width="4" stroke-linecap="round"/>
</svg>